<?xml version="1.0" encoding="utf-8"?>
<!-- Generator: Adobe Illustrator 26.0.0, SVG Export Plug-In . SVG Version: 6.00 Build 0)  -->
<svg version="1.1" id="Layer_1" xmlns="http://www.w3.org/2000/svg" xmlns:xlink="http://www.w3.org/1999/xlink" x="0px" y="0px"
	 viewBox="0 0 1000 1000" style="enable-background:new 0 0 1000 1000;" xml:space="preserve">
<style type="text/css">
	.st0{fill:#60C4BC;}
</style>
<g>
	<path class="st0" d="M237.95,866.54h154.86c32.93,0,62.62,1.13,88.91,0h213.02c48.06,0,84.1-2.41,108.27-7.07
		c24.17-4.81,46.36-12.59,66.58-23.49c33.64-18.25,59.79-42.58,78.17-73.28c18.38-30.56,27.7-64.8,27.7-102.57
		c0-37.63-9.19-71.73-27.56-102.28c-18.37-30.56-44.24-55.03-77.74-73.28c-21.06-11.46-44.67-19.81-70.68-24.76
		c-26.01-5.09-62.9-7.64-110.68-7.64h-16.48c-19.68,0-27.03-25.01-11.02-36.46c0.21-0.15,0.43-0.31,0.64-0.46
		c38.02-27.45,56.96-63.66,56.96-108.65c0-62.39-27.85-106.95-83.25-133.55C580.1,146.3,484.69,133,349.13,133H237.95V866.54z
		 M322.98,801.6c-13-11.32-19.51-42.3-19.51-92.67V497.01c3.53,0,9.19-0.14,16.54-0.42c7.49-0.42,13.29-0.57,17.24-0.57
		c78.73,0,135.27,12.45,169.48,37.35c15.55,11.32,27.42,25.89,35.76,43.86c10.32,21.5,15.41,48.1,15.41,79.51
		c0,32.26-5.09,59.84-15.41,82.76c-6.5,14.57-14.98,27.16-25.44,37.77c-27.14,27.73-66.58,41.59-118.17,41.59
		C361.43,818.86,336.13,813.06,322.98,801.6z M815.45,526.44c20.92,29.99,31.38,74.41,31.38,133.69
		c0,59.84-10.04,104.27-30.11,133.27c-19.93,28.86-50.75,43.43-92.3,43.43c-26.01,0-43.39-3.11-51.88-9.48
		c-1.98-1.41-3.68-3.4-5.09-5.94c-5.23-8.49-7.77-23.2-7.77-43.86V541.58c0-10.04,0.57-18.67,1.84-25.89
		c1.84-12.31,5.65-20.51,11.03-24.48c8.48-6.37,25.16-9.48,50.04-9.48C763.71,481.73,794.67,496.59,815.45,526.44z M495.01,220.01
		c23.04,22.49,34.49,53.34,34.49,92.52c0,47.39-13.57,81.07-40.71,101.15c-27.14,20.09-73.36,30.13-138.66,30.13
		c-12.3,0-21.63-0.14-28.27-0.28c-6.64-0.14-12.86-0.42-18.38-0.71V291.17c0-48.81,6.36-78.52,19.37-89.13
		c12.86-10.61,39.01-15.85,78.45-15.85C440.73,186.19,471.97,197.51,495.01,220.01z"/>
	<path class="st0" d="M185.24,133H43.5c-10.99,0-19.9,8.92-19.9,19.91v14.62c0,10.5,8.14,19.19,18.6,19.87l11.79,0.77
		c25.16,1.7,42.26,8.06,51.45,19.1c9.05,11.18,13.57,39.05,13.57,83.89v555.46c0,11,8.91,19.91,19.9,19.91h46.33V133z"/>
</g>
</svg>
